# xmcd CD database file
#
# Track frame offsets:
#	150
#	20750
#	36945
#	65023
#	83825
#	97687
#	124248
#	146795
#	161453
#	175678
#	202247
#
# Disc length: 3094 seconds
#
# Revision: 0
# Processed by: cddbd v1.5.1PL0 Copyright (c) Steve Scherf et al.
# Submitted via: CDex 1.51
#
DISCID=980c140b
DTITLE=American Ambulance - Stray
DYEAR=2003
DGENRE=Country
TTITLE0=Marianne Is Hangin' On
TTITLE1=When I Get Home
TTITLE2=Hey! Richard Nixon
TTITLE3=Raleigh And Spencer
TTITLE4=Stray Dog Blues
TTITLE5=I Found Out About You
TTITLE6=Saturday Nite and Sunday Morning
TTITLE7=No Change Back
TTITLE8=Fugitive
TTITLE9=Rollin' Thunder
TTITLE10=Why O Children
EXTD=YEAR: 2003
EXTT0=
EXTT1=
EXTT2=
EXTT3=
EXTT4=
EXTT5=
EXTT6=
EXTT7=
EXTT8=
EXTT9=
EXTT10=
PLAYORDER=
